<svg xmlns="http://www.w3.org/2000/svg" width="100" height="30" viewBox="0 0 26.458 7.937" version="1.1" id="svg8"><g fill="#fff" id="layer1" transform="translate(-.087 -279.785)"><g id="g4591" transform="translate(6.186 132.684) scale(.53242)" stroke-width="1.878"><switch fill="#fff" transform="translate(0 270.542) scale(.26458)" id="switch4528" stroke-width="1.878"><g fill="#fff" id="g4526" stroke-width="1.878"><g fill="#fff" id="g4524" stroke-width="1.878"><path fill="#fff" id="path4520" d="M94 42.4c-8.2-7.2-24.8-19.2-44-19.2s-35.8 12-44 19.2c-2.2 1.9-3.5 4.7-3.5 7.6 0 2.9 1.3 5.7 3.5 7.6 8.2 7.2 24.8 19.2 44 19.2s35.8-12 44-19.2c2.2-1.9 3.5-4.7 3.5-7.6 0-2.9-1.3-5.7-3.5-7.6zM50 70.6c-11.4 0-20.6-9.3-20.6-20.6S38.6 29.4 50 29.4c11.4 0 20.6 9.2 20.6 20.6 0 11.4-9.2 20.6-20.6 20.6zM7.4 50c0-1.5.6-2.9 1.8-3.9 4.9-4.3 13.1-10.5 23-14.3-4.8 4.6-7.7 11.1-7.7 18.3 0 7.2 3 13.6 7.7 18.3-9.9-3.9-18.1-10-23-14.3C8 52.9 7.4 51.5 7.4 50zm83.4 3.9c-4.9 4.3-13.1 10.5-23 14.3 4.8-4.6 7.7-11.1 7.7-18.3 0-7.2-3-13.6-7.7-18.3 9.9 3.9 18.1 10 23 14.3 1.1 1 1.8 2.4 1.8 3.9 0 1.7-.7 3.1-1.8 4.1z" class="st0" clip-rule="evenodd" fill-rule="evenodd" stroke-width="1.878"/><path fill="#fff" id="path4522" d="M50 37c-1 0-2 .1-2.9.3 1.3 1 2.2 2.5 2.2 4.3 0 3-2.4 5.4-5.4 5.4-2.3 0-4.3-1.5-5-3.6-1.2 1.9-1.9 4.2-1.9 6.6 0 7.2 5.8 13 13 13s13-5.8 13-13-5.8-13-13-13z" class="st0" clip-rule="evenodd" fill-rule="evenodd" stroke-width="1.878"/></g></g></switch></g><text xml:space="preserve" style="line-height:125%;-inkscape-font-specification:'Brandon Text Bold';text-align:center" x="3.603" y="287.167" id="text4595" font-style="normal" font-variant="normal" font-weight="700" font-stretch="normal" font-size="9.878" font-family="'Brandon Text'" letter-spacing="0" word-spacing="0" writing-mode="lr-tb" text-anchor="middle" fill-opacity="1" stroke="none" stroke-width=".265" stroke-linecap="butt" stroke-linejoin="miter" stroke-opacity="1"><tspan fill="#fff" id="tspan4593" x="3.603" y="287.167" stroke-width=".265">B</tspan></text><text xml:space="preserve" style="line-height:125%;-inkscape-font-specification:'Brandon Text Bold';text-align:center" x="-22.83" y="287.18" id="text4595-4" transform="scale(-1 1)" font-style="normal" font-variant="normal" font-weight="700" font-stretch="normal" font-size="9.91" font-family="'Brandon Text'" letter-spacing="0" word-spacing="0" writing-mode="lr-tb" text-anchor="middle" fill-opacity="1" stroke="none" stroke-width=".265" stroke-linecap="butt" stroke-linejoin="miter" stroke-opacity="1"><tspan fill="#fff" id="tspan4593-2" x="-22.83" y="287.18" stroke-width=".265">B</tspan></text></g><style id="style4518" type="text/css">.st0{fill-rule:evenodd;clip-rule:evenodd}</style></svg>