<svg xmlns="http://www.w3.org/2000/svg" id="svg8" version="1.1" viewBox="0 0 26.458 26.458" height="100" width="100"><g id="layer1"><g stroke-width="1.003" transform="translate(-.016 -269.395) scale(.99677)" id="g4591" fill="#fff"><switch stroke-width="1.003" id="switch4528" transform="translate(0 270.542) scale(.26458)" fill="#fff"><g stroke-width="1.003" id="g4526" fill="#fff"><g stroke-width="1.003" id="g4524" fill="#fff"><path stroke-width="1.003" fill-rule="evenodd" clip-rule="evenodd" class="st0" d="M94 42.4c-8.2-7.2-24.8-19.2-44-19.2s-35.8 12-44 19.2c-2.2 1.9-3.5 4.7-3.5 7.6 0 2.9 1.3 5.7 3.5 7.6 8.2 7.2 24.8 19.2 44 19.2s35.8-12 44-19.2c2.2-1.9 3.5-4.7 3.5-7.6 0-2.9-1.3-5.7-3.5-7.6zM50 70.6c-11.4 0-20.6-9.3-20.6-20.6S38.6 29.4 50 29.4c11.4 0 20.6 9.2 20.6 20.6 0 11.4-9.2 20.6-20.6 20.6zM7.4 50c0-1.5.6-2.9 1.8-3.9 4.9-4.3 13.1-10.5 23-14.3-4.8 4.6-7.7 11.1-7.7 18.3 0 7.2 3 13.6 7.7 18.3-9.9-3.9-18.1-10-23-14.3C8 52.9 7.4 51.5 7.4 50zm83.4 3.9c-4.9 4.3-13.1 10.5-23 14.3 4.8-4.6 7.7-11.1 7.7-18.3 0-7.2-3-13.6-7.7-18.3 9.9 3.9 18.1 10 23 14.3 1.1 1 1.8 2.4 1.8 3.9 0 1.7-.7 3.1-1.8 4.1z" id="path4520" fill="#fff"/><path stroke-width="1.003" fill-rule="evenodd" clip-rule="evenodd" class="st0" d="M50 37c-1 0-2 .1-2.9.3 1.3 1 2.2 2.5 2.2 4.3 0 3-2.4 5.4-5.4 5.4-2.3 0-4.3-1.5-5-3.6-1.2 1.9-1.9 4.2-1.9 6.6 0 7.2 5.8 13 13 13s13-5.8 13-13-5.8-13-13-13z" id="path4522" fill="#fff"/></g></g></switch></g></g><style id="style4518" type="text/css">.st0{fill-rule:evenodd;clip-rule:evenodd}</style></svg>